<svg xmlns="http://www.w3.org/2000/svg" width="64" height="64" viewBox="0 0 64 64" role="img"><title>Spectre Brands — Reel-Eyed Ghost (icon)</title><defs></defs><g transform="translate(7 2) scale(0.333)" ><path d="M10 0 H140 Q150 0 150 10 V190 L137.5 174 L125.0 190 L112.5 174 L100.0 190 L87.5 174 L75.0 190 L62.5 174 L50.0 190 L37.5 174 L25.0 190 L12.5 174 L0 190 V10 Q0 0 10 0 Z" fill="#F4EBD6" stroke="#141414" stroke-width="3.5" stroke-linejoin="round"/><rect x="-1" y="34" width="8" height="10" rx="0" fill="#141414" /><rect x="143" y="34" width="8" height="10" rx="0" fill="#141414" /><rect x="16" y="12" width="118" height="18" rx="0" fill="#E8322B" /><path aria-label="BE KIND · REWIND" d="M24.42 25.0V23.84H25.27V19.16H24.42V18.0H27.73Q28.32 18.0 28.75 18.21Q29.19 18.43 29.43 18.82Q29.67 19.22 29.67 19.77V19.87Q29.67 20.35 29.51 20.66Q29.34 20.96 29.12 21.12Q28.89 21.29 28.69 21.36V21.54Q28.89 21.6 29.13 21.77Q29.37 21.93 29.54 22.24Q29.71 22.55 29.71 23.05V23.15Q29.71 23.73 29.46 24.14Q29.22 24.56 28.78 24.78Q28.34 25.0 27.76 25.0ZM26.48 23.8H27.62Q28.01 23.8 28.26 23.59Q28.50 23.38 28.50 22.99V22.89Q28.50 22.5 28.26 22.29Q28.02 22.08 27.62 22.08H26.48ZM26.48 20.88H27.60Q27.98 20.88 28.22 20.67Q28.46 20.46 28.46 20.09V19.99Q28.46 19.61 28.22 19.41Q27.99 19.2 27.60 19.2H26.48ZM32.54 25.0V18.0H36.67V19.2H33.75V20.87H36.41V22.07H33.75V23.8H36.73V25.0ZM43.63 25.0V18.0H44.84V20.78H45.01L47.09 18.0H48.65L45.96 21.45L48.74 25.0H47.14L45.01 22.16H44.84V25.0ZM51.22 25.0V18.0H52.43V25.0ZM55.48 25.0V18.0H57.78L59.06 24.1H59.22V18.0H60.42V25.0H58.11L56.84 18.9H56.67V25.0ZM63.28 25.0V23.84H64.13V19.16H63.28V18.0H65.93Q67.22 18.0 67.90 18.71Q68.57 19.43 68.57 20.84V22.16Q68.57 23.57 67.90 24.29Q67.22 25.0 65.93 25.0ZM65.34 23.8H65.95Q66.68 23.8 67.02 23.38Q67.36 22.96 67.36 22.2V20.8Q67.36 20.03 67.02 19.62Q66.68 19.2 65.95 19.2H65.34ZM75.99 23.09Q75.62 23.09 75.36 22.82Q75.11 22.56 75.11 22.14Q75.11 21.72 75.36 21.45Q75.62 21.19 75.99 21.19Q76.36 21.19 76.61 21.46Q76.85 21.72 76.85 22.14Q76.85 22.56 76.61 22.82Q76.36 23.09 75.99 23.09ZM83.59 25.0V18.0H86.39Q86.99 18.0 87.44 18.23Q87.89 18.46 88.14 18.88Q88.39 19.3 88.39 19.87V19.99Q88.39 20.62 88.11 21.01Q87.84 21.4 87.43 21.58V21.76Q87.80 21.78 88.00 22.04Q88.20 22.29 88.20 22.71V25.0H86.99V22.9Q86.99 22.66 86.88 22.51Q86.76 22.36 86.50 22.36H84.81V25.0ZM84.81 21.16H86.26Q86.69 21.16 86.93 20.91Q87.18 20.65 87.18 20.23V20.13Q87.18 19.71 86.94 19.45Q86.70 19.2 86.26 19.2H84.81ZM91.23 25.0V18.0H95.37V19.2H92.45V20.87H95.11V22.07H92.45V23.8H95.42V25.0ZM98.67 25.0 97.83 18.0H99.03L99.66 24.08H99.82L100.63 18.0H102.72L103.53 24.08H103.70L104.32 18.0H105.52L104.68 25.0H102.58L101.76 18.78H101.59L100.77 25.0ZM108.24 25.0V18.0H109.45V25.0ZM112.50 25.0V18.0H114.81L116.08 24.1H116.25V18.0H117.44V25.0H115.14L113.86 18.9H113.70V25.0ZM120.31 25.0V23.84H121.15V19.16H120.31V18.0H122.95Q124.25 18.0 124.92 18.71Q125.60 19.43 125.60 20.84V22.16Q125.60 23.57 124.92 24.29Q124.25 25.0 122.95 25.0ZM122.36 23.8H122.97Q123.70 23.8 124.04 23.38Q124.38 22.96 124.38 22.2V20.8Q124.38 20.03 124.04 19.62Q123.70 19.2 122.97 19.2H122.36Z" fill="#F4EBD6" /><circle cx="45" cy="70" r="24" fill="#141414" /><circle cx="45" cy="70" r="21" fill="#F4EBD6" /><circle cx="45" cy="70" r="19" fill="#141414" /><path d="M55.84 68.13 L55.84 71.87 L53.66 71.56 L52.64 74.37 L54.51 75.53 L52.10 78.40 L50.63 76.76 L48.04 78.26 L48.73 80.35 L45.04 81.00 L44.97 78.80 L42.02 78.28 L41.20 80.32 L37.96 78.45 L39.32 76.72 L37.39 74.43 L35.45 75.47 L34.17 71.95 L36.33 71.50 L36.33 68.50 L34.17 68.05 L35.45 64.53 L37.39 65.57 L39.32 63.28 L37.96 61.55 L41.20 59.68 L42.02 61.72 L44.97 61.20 L45.04 59.00 L48.73 59.65 L48.04 61.74 L50.63 63.24 L52.10 61.60 L54.51 64.47 L52.64 65.63 L53.66 68.44Z M40.05 70 a4.95 4.95 0 1 0 9.90 0 a4.95 4.95 0 1 0 -9.90 0Z" fill="#F4EBD6" fill-rule="evenodd" /><circle cx="105" cy="70" r="24" fill="#141414" /><circle cx="105" cy="70" r="21" fill="#F4EBD6" /><circle cx="105" cy="70" r="19" fill="#141414" /><path d="M115.84 68.13 L115.84 71.87 L113.66 71.56 L112.64 74.37 L114.51 75.53 L112.10 78.40 L110.63 76.76 L108.04 78.26 L108.73 80.35 L105.04 81.00 L104.97 78.80 L102.02 78.28 L101.20 80.32 L97.96 78.45 L99.32 76.72 L97.39 74.43 L95.45 75.47 L94.17 71.95 L96.33 71.50 L96.33 68.50 L94.17 68.05 L95.45 64.53 L97.39 65.57 L99.32 63.28 L97.96 61.55 L101.20 59.68 L102.02 61.72 L104.97 61.20 L105.04 59.00 L108.73 59.65 L108.04 61.74 L110.63 63.24 L112.10 61.60 L114.51 64.47 L112.64 65.63 L113.66 68.44Z M100.05 70 a4.95 4.95 0 1 0 9.90 0 a4.95 4.95 0 1 0 -9.90 0Z" fill="#F4EBD6" fill-rule="evenodd" /><rect x="38" y="112" width="74" height="18" rx="4" fill="#141414" /><rect x="44" y="120" width="62" height="3" rx="0" fill="#F4EBD6" /></g></svg>