<svg xmlns="http://www.w3.org/2000/svg" width="64" height="64" viewBox="0 0 64 64" role="img" aria-labelledby="title desc" shape-rendering="crispEdges"><title id="title">Spectre Brands — Clean Refresh icon</title><desc id="desc">Mark on a 16 by 16 pixel grid, scaled four times; solid ghost with clear eyes.</desc><rect x="0" y="0" width="64" height="64" fill="#1846C8"/><g aria-label="Background pixel-grid scanlines"><rect x="0" y="8" width="64" height="4" fill="#1740B4"/><rect x="0" y="16" width="64" height="4" fill="#1740B4"/><rect x="0" y="24" width="64" height="4" fill="#1740B4"/><rect x="0" y="32" width="64" height="4" fill="#1740B4"/><rect x="0" y="40" width="64" height="4" fill="#1740B4"/><rect x="0" y="48" width="64" height="4" fill="#1740B4"/><rect x="0" y="56" width="64" height="4" fill="#1740B4"/></g><g aria-label="Pixel ghost"><rect x="24" y="8" width="16" height="4" fill="#F3EBD8"/><rect x="16" y="12" width="32" height="4" fill="#F3EBD8"/><rect x="12" y="16" width="40" height="4" fill="#F3EBD8"/><rect x="8" y="20" width="48" height="28" fill="#F3EBD8"/><rect x="8" y="48" width="12" height="8" fill="#F3EBD8"/><rect x="24" y="48" width="16" height="8" fill="#F3EBD8"/><rect x="44" y="48" width="12" height="8" fill="#F3EBD8"/><rect x="16" y="24" width="8" height="8" fill="#1846C8"/><rect x="40" y="24" width="8" height="8" fill="#1846C8"/></g><rect x="8" y="60" width="16" height="4" fill="#FFC23D"/><rect x="28" y="60" width="12" height="4" fill="#FFC23D"/><rect x="44" y="60" width="12" height="4" fill="#FFC23D"/></svg>
