<svg xmlns="http://www.w3.org/2000/svg" width="64" height="64" viewBox="0 0 64 64" role="img" aria-labelledby="title desc" shape-rendering="crispEdges"><title id="title">Spectre Brands — Tracking Echo icon</title><desc id="desc">Mark on a 16 by 16 pixel grid, scaled four times; solid ghost with clear eyes.</desc><rect x="0" y="0" width="64" height="64" fill="#080F12"/><g aria-label="Pixel ghost"><rect x="28" y="12" width="16" height="4" fill="#45DDD0"/><rect x="20" y="16" width="32" height="4" fill="#45DDD0"/><rect x="16" y="20" width="40" height="4" fill="#45DDD0"/><rect x="12" y="24" width="48" height="28" fill="#45DDD0"/><rect x="12" y="52" width="12" height="8" fill="#45DDD0"/><rect x="28" y="52" width="16" height="8" fill="#45DDD0"/><rect x="48" y="52" width="12" height="8" fill="#45DDD0"/><rect x="20" y="28" width="8" height="8" fill="#080F12"/><rect x="44" y="28" width="8" height="8" fill="#080F12"/></g><g aria-label="Pixel ghost"><rect x="20" y="4" width="16" height="4" fill="#FFFFFF"/><rect x="12" y="8" width="32" height="4" fill="#FFFFFF"/><rect x="8" y="12" width="40" height="4" fill="#FFFFFF"/><rect x="4" y="16" width="48" height="28" fill="#FFFFFF"/><rect x="4" y="44" width="12" height="8" fill="#FFFFFF"/><rect x="20" y="44" width="16" height="8" fill="#FFFFFF"/><rect x="40" y="44" width="12" height="8" fill="#FFFFFF"/><rect x="12" y="20" width="8" height="8" fill="#080F12"/><rect x="36" y="20" width="8" height="8" fill="#080F12"/></g></svg>
