<svg viewBox="0 0 360 420" xmlns="http://www.w3.org/2000/svg" role="img" aria-label="Original illustration of a kite-shaped roadside hamburger sign on two legs, with a burger drawn on the upper panel">
<g stroke="#1d1b18" stroke-width="3" stroke-linecap="round" stroke-linejoin="round">
<path d="M150 250 L120 400 M210 250 L240 400" fill="none" stroke-width="9"/>
<path d="M92 400 H268" fill="none"/>
<path d="M180 22 L292 132 L180 262 L68 132 Z" fill="#e8742a"/>
<path d="M180 46 L266 132 L180 234 L94 132 Z" fill="#2f6fb5"/>
<path d="M132 128 C132 96 228 96 228 128 Z" fill="#e9b566"/>
<path d="M128 136 H232" fill="none" stroke="#5b8f3a" stroke-width="7"/>
<rect x="130" y="142" width="100" height="14" rx="6" fill="#6b3d22"/>
<path d="M132 162 H228 C228 176 220 180 208 180 H152 C140 180 132 176 132 162 Z" fill="#e9b566"/>
<path d="M160 110 l6 -3 M180 106 l6 2 M198 111 l5 -3" fill="none" stroke-width="2"/>
<rect x="40" y="270" width="280" height="56" rx="4" fill="#fbf9f5"/>
<path d="M62 290 H298 M62 306 H236" fill="none" stroke="#b8430e" stroke-width="7"/>
<g class="screen" fill="#f6d04d" stroke-width="2">
<circle cx="180" cy="22" r="6"/><circle cx="236" cy="77" r="6"/><circle cx="292" cy="132" r="6"/><circle cx="236" cy="197" r="6"/><circle cx="180" cy="262" r="6"/><circle cx="124" cy="197" r="6"/><circle cx="68" cy="132" r="6"/><circle cx="124" cy="77" r="6"/>
</g>
<rect x="110" y="340" width="140" height="30" rx="4" fill="#2f6fb5"/>
<path d="M128 355 H232" fill="none" stroke="#fbf9f5" stroke-width="5"/>
</g></svg>
